<?xml version="1.0" standalone="no"?>
<!DOCTYPE svg PUBLIC "-//W3C//DTD SVG 20010904//EN"
 "http://www.w3.org/TR/2001/REC-SVG-20010904/DTD/svg10.dtd">
<svg version="1.0" xmlns="http://www.w3.org/2000/svg"
 width="1176.000000pt" height="866.000000pt" viewBox="0 0 1176.000000 866.000000"
 preserveAspectRatio="xMidYMid meet">

<g transform="translate(0.000000,866.000000) scale(0.100000,-0.100000)"
fill="#000000" stroke="none">
<path d="M0 8235 l0 -55 120 0 c66 0 120 -2 120 -5 0 -8 -132 -165 -138 -165
-3 0 -27 18 -54 41 l-48 40 0 -30 c0 -22 9 -37 37 -60 36 -30 36 -31 18 -51
-10 -11 -26 -20 -37 -20 -16 0 -18 -10 -18 -120 l0 -120 700 0 c688 0 700 0
700 -20 0 -14 -9 -20 -37 -25 -85 -13 -88 -15 -89 -73 -1 -51 -2 -53 -47 -82
-25 -16 -54 -44 -63 -62 -21 -40 -33 -198 -15 -198 6 0 10 -6 8 -12 -1 -7 3
-12 9 -11 6 1 24 -20 40 -47 16 -27 41 -56 57 -65 54 -32 165 -135 171 -159 3
-14 2 -35 -2 -48 -5 -13 -4 -63 2 -115 10 -85 14 -95 45 -128 31 -31 40 -35
85 -34 88 2 108 10 133 54 19 33 22 48 17 90 -4 28 -8 66 -9 85 -3 31 -6 35
-29 32 -30 -3 -37 25 -8 35 9 3 30 15 45 26 l28 19 -6 -33 -6 -34 81 -27 c79
-26 83 -26 129 -11 46 15 49 18 84 94 l36 79 -24 43 c-23 40 -32 46 -105 71
-44 16 -80 32 -80 36 0 5 16 14 36 20 55 19 33 23 -55 11 -96 -13 -132 -4
-128 31 1 18 -2 22 -17 20 -15 -3 -17 0 -10 15 10 21 18 325 10 358 -9 35 -61
55 -121 45 -70 -12 -75 -12 -75 5 0 13 113 15 953 15 925 0 953 -1 954 -19 1
-16 -9 -19 -80 -26 -45 -4 -88 -11 -94 -17 -9 -7 -13 -39 -13 -92 -1 -65 -5
-91 -25 -131 -31 -63 -31 -100 1 -189 19 -53 38 -84 76 -122 l50 -52 -24 -48
c-14 -27 -33 -80 -43 -117 -23 -85 -12 -102 33 -52 18 19 37 35 41 35 5 0 12
14 16 30 4 17 9 30 12 30 3 0 18 -11 35 -25 16 -14 36 -25 44 -25 9 0 12 -4 9
-10 -3 -5 -27 -10 -52 -10 l-45 0 3 -86 4 -86 40 -35 40 -34 85 6 c78 6 88 9
118 38 l33 32 -3 90 -3 90 -38 5 -39 5 34 19 c18 10 44 28 56 40 l24 21 -7
-35 c-6 -35 -6 -35 55 -63 66 -29 109 -33 158 -16 23 8 32 18 38 47 4 20 8 39
9 42 16 67 15 80 -10 118 -21 32 -87 77 -115 77 -3 0 -20 6 -37 14 -38 16 -42
34 -10 49 19 9 16 11 -25 11 -41 1 -48 4 -48 21 0 11 -6 20 -12 20 -10 0 -12
43 -10 189 5 234 6 231 -118 231 -64 0 -80 3 -80 15 0 13 118 15 1005 15 887
0 1005 -2 1005 -15 0 -12 -14 -15 -69 -15 -38 0 -81 -4 -95 -10 l-26 -10 2
-117 2 -118 5 110 6 110 88 3 87 3 0 -26 c0 -23 3 -25 46 -25 44 0 46 1 42 25
l-5 25 86 0 c54 0 92 -5 99 -12 15 -15 17 -344 2 -353 -5 -3 -11 0 -12 7 0 7
-2 18 -3 23 -19 118 -37 152 -104 194 -41 26 -57 31 -112 31 -53 0 -72 -5
-105 -26 -52 -34 -64 -54 -84 -139 -11 -46 -21 -69 -30 -67 -9 2 -10 -4 -5
-20 4 -13 8 -38 8 -55 0 -18 4 -33 8 -33 13 0 18 -43 6 -54 -7 -6 -33 -24 -58
-38 -25 -15 -57 -45 -72 -66 -22 -34 -25 -49 -25 -117 1 -71 3 -78 25 -88 21
-9 34 -6 89 23 54 30 64 39 64 62 0 33 13 43 31 22 7 -8 31 -25 53 -37 l41
-22 -55 -3 -55 -3 3 -89 3 -89 40 -35 c39 -36 40 -36 132 -36 l93 0 37 38 c37
38 37 38 37 125 l0 87 -45 0 c-53 0 -58 13 -12 36 17 9 42 25 53 36 l21 19 7
-41 c6 -38 10 -42 69 -71 52 -26 66 -29 90 -20 26 10 27 13 27 87 0 105 -28
150 -122 200 -70 36 -76 42 -57 61 14 14 39 6 39 -13 0 -8 5 -14 10 -14 6 0
10 23 10 50 0 28 -4 50 -10 50 -5 0 -10 -7 -10 -15 0 -8 -7 -15 -15 -15 -8 0
-15 6 -15 14 0 7 7 19 15 26 21 18 22 356 1 386 -12 16 -29 20 -105 22 -69 3
-91 7 -91 18 0 12 152 14 988 16 1049 3 1135 2 1140 -21 2 -11 -10 -13 -61 -9
-42 4 -75 1 -95 -8 l-32 -13 0 -183 c1 -136 4 -189 14 -208 25 -44 7 -57 -66
-49 -35 3 -70 2 -78 -2 -12 -7 -10 -8 6 -9 12 0 27 -7 34 -15 7 -8 23 -15 36
-15 28 0 30 -10 7 -53 l-16 -32 -13 31 c-18 43 -32 46 -84 19 -25 -13 -57 -29
-72 -35 -15 -6 -36 -27 -47 -46 -21 -35 -21 -35 -2 -104 25 -88 24 -87 72
-100 36 -10 49 -8 105 14 35 14 71 26 79 26 19 0 19 8 1 42 -22 42 -1 44 43 6
21 -18 46 -38 57 -45 17 -10 14 -12 -22 -12 l-42 -1 -7 -85 c-6 -76 -5 -87 14
-113 32 -46 42 -50 131 -57 l85 -7 34 33 c36 34 50 77 51 155 0 44 -10 54 -54
54 -36 0 -38 12 -6 31 17 11 30 23 30 29 0 17 20 11 27 -7 12 -34 86 -114 95
-105 9 9 -12 77 -53 178 -11 27 -10 37 5 68 16 35 78 86 103 86 8 0 11 9 7 29
-4 18 2 43 16 71 30 58 25 141 -11 191 -19 28 -25 50 -29 119 l-5 85 -35 7
c-19 4 -60 11 -90 15 -40 6 -56 13 -58 26 -3 16 51 17 1018 17 813 0 1021 -3
1017 -12 -3 -9 -23 -12 -69 -10 -111 6 -108 11 -108 -194 0 -96 4 -183 10
-193 7 -14 2 -25 -26 -52 -38 -37 -71 -42 -179 -27 -45 7 -47 6 -17 -4 17 -6
32 -16 32 -22 0 -6 -35 -24 -78 -39 -73 -26 -80 -31 -99 -71 l-21 -43 36 -76
c35 -73 39 -77 85 -91 44 -14 53 -14 110 4 75 24 106 25 114 4 3 -8 1 -47 -4
-86 -9 -67 -8 -72 18 -112 28 -45 54 -56 140 -56 49 0 84 44 93 120 10 73 16
91 27 85 14 -9 11 23 -7 57 -29 55 -27 58 185 236 28 24 51 48 51 55 0 6 11
23 25 37 35 36 47 113 29 182 -16 60 -40 89 -95 113 -37 17 -39 20 -39 65 0
26 -6 52 -12 58 -7 5 -37 13 -65 17 -47 6 -53 9 -53 31 l0 24 935 0 935 0 0
43 c0 24 -6 49 -12 56 -10 11 -10 14 0 18 7 3 12 25 12 59 0 52 -1 54 -26 54
-17 0 -36 10 -51 28 l-23 27 22 19 c13 10 36 28 51 41 19 14 28 29 25 43 -3
19 -9 16 -58 -28 -60 -54 -65 -57 -77 -36 -4 8 -35 44 -68 81 -33 37 -61 72
-63 76 -2 5 57 9 132 9 l136 0 0 55 0 55 -5880 0 -5880 0 0 -55z m2302 -138
c-83 -83 -63 -85 -198 18 l-79 60 165 5 c91 3 169 2 175 -3 5 -4 -21 -38 -63
-80z m1032 10 l68 -64 -93 -61 c-117 -77 -153 -81 -235 -26 -30 19 -54 40 -54
47 0 18 170 176 194 179 29 5 40 -2 120 -75z m272 70 c6 -6 -70 -59 -127 -88
l-40 -20 -48 38 c-27 21 -57 43 -67 49 -9 5 -15 14 -12 20 6 9 284 11 294 1z
m572 3 c7 0 -15 -31 -50 -70 -35 -38 -70 -70 -79 -70 -9 0 -44 21 -77 48 -33
26 -74 55 -92 64 -17 10 -29 22 -26 26 3 5 74 7 158 5 84 -2 159 -3 166 -3z
m369 0 c135 0 136 0 118 -20 -10 -11 -22 -20 -26 -20 -5 0 -34 -18 -65 -40
-32 -22 -62 -40 -67 -40 -6 0 -30 17 -55 38 -24 20 -54 44 -65 53 -22 18 -15
44 10 35 8 -3 76 -6 150 -6z m1203 -6 c0 -3 -123 -84 -177 -117 -11 -7 -133
92 -141 114 -2 5 63 10 145 11 139 3 173 1 173 -8z m1057 -1 c2 -4 -12 -18
-30 -30 -17 -12 -58 -40 -90 -62 -45 -32 -62 -39 -75 -32 -28 16 -124 120
-119 128 7 10 311 6 314 -4z m567 9 c3 -5 -14 -23 -37 -40 -23 -17 -56 -43
-73 -57 l-32 -26 -88 58 -89 58 150 5 c83 3 153 7 157 8 4 1 9 -2 12 -6z m500
-11 c-34 -29 -175 -131 -181 -131 -14 0 -144 130 -139 138 2 4 77 6 167 4 89
-2 158 -6 153 -11z m1314 4 c3 -3 3 -6 1 -8 -2 -2 -26 -21 -54 -43 -27 -22
-56 -44 -62 -48 -12 -7 -69 21 -147 73 l-40 26 55 5 c63 6 240 2 247 -5z m155
-34 c21 -20 61 -62 88 -93 l50 -57 -48 -35 c-73 -54 -111 -50 -229 20 -52 31
-97 61 -101 67 -3 5 7 21 23 34 16 13 48 40 71 60 23 20 47 40 54 43 20 13 53
-1 92 -39z m355 22 c-10 -13 -84 -71 -174 -137 -9 -7 -32 10 -83 63 -39 40
-71 77 -71 82 0 8 316 18 333 11 4 -2 2 -11 -5 -19z m1586 21 c17 -7 22 -34 7
-34 -5 0 -30 -16 -56 -35 l-46 -36 -47 21 c-53 24 -112 61 -112 72 0 4 39 9
88 11 48 1 101 4 119 5 17 1 38 -1 47 -4z m-10849 -63 c52 -42 71 -62 62 -68
-7 -5 -57 -35 -113 -66 -85 -48 -108 -57 -150 -57 -41 0 -55 5 -74 25 l-23 24
39 44 c21 24 61 69 87 100 34 41 55 57 73 57 15 0 53 -23 99 -59z m275 55 c0
-8 -147 -86 -161 -86 -8 1 -36 21 -64 45 l-50 45 138 0 c75 0 137 -2 137 -4z
m256 -54 c39 -31 93 -76 119 -99 l49 -42 -24 -26 c-23 -25 -24 -25 -193 -25
l-170 0 -74 57 c-40 31 -72 60 -71 65 2 5 48 35 103 68 137 81 163 81 261 2z
m344 50 c0 -4 -33 -41 -74 -81 l-74 -74 -69 54 c-37 29 -83 66 -101 81 l-33
28 176 0 c96 0 175 -3 175 -8z m193 -54 l76 -63 -32 -19 c-18 -10 -59 -36 -92
-57 -103 -64 -160 -69 -224 -18 l-34 27 44 48 c153 173 152 172 262 82z m267
47 c-7 -8 -16 -15 -21 -15 -4 0 -35 -17 -69 -37 -62 -36 -62 -36 -93 -19 -32
17 -97 71 -97 81 0 3 66 5 146 5 129 0 145 -2 134 -15z m251 -31 c38 -25 93
-68 121 -94 l53 -49 -35 -36 -34 -35 -162 0 -161 0 -69 55 c-38 30 -72 55 -76
55 -5 0 -8 6 -8 14 0 7 28 28 63 46 34 19 82 46 106 62 69 43 117 39 202 -18z
m631 40 c3 -3 0 -29 -7 -57 -7 -29 -18 -85 -25 -124 l-12 -73 -39 -1 c-21 -1
-44 -2 -51 -3 -8 -1 -18 41 -30 124 -9 69 -17 128 -18 133 0 8 174 10 182 1z
m136 -44 c37 -27 85 -63 107 -80 22 -17 47 -35 55 -40 12 -8 8 -16 -25 -50
-39 -40 -39 -40 -115 -40 l-76 0 -13 113 c-7 61 -15 120 -18 130 -7 28 14 20
85 -33z m287 -12 c-32 -35 -64 -69 -71 -77 -10 -11 -25 -4 -91 42 -43 31 -89
65 -103 77 l-25 20 174 0 174 0 -58 -62z m767 24 c44 -29 149 -105 177 -129 3
-2 -15 -24 -39 -48 l-44 -45 -164 0 -163 0 -57 46 c-53 43 -79 72 -70 78 1 2
37 24 78 50 41 27 86 56 100 66 16 12 43 19 75 19 41 1 60 -6 107 -37z m514
-5 c27 -24 61 -54 77 -67 15 -13 27 -27 27 -32 0 -4 -38 -33 -84 -63 -109 -72
-135 -73 -228 -9 l-67 46 86 84 c103 101 118 104 189 41z m613 -39 l114 -81
-51 -48 -51 -49 -166 0 -167 0 -54 52 c-30 29 -53 56 -51 61 1 4 50 39 107 77
94 61 110 69 155 69 47 0 57 -5 164 -81z m221 17 c-36 -35 -70 -65 -75 -65 -6
0 -43 22 -83 50 -41 27 -82 52 -93 55 -53 17 -5 25 148 25 l168 0 -65 -65z
m258 -10 c93 -87 94 -81 -15 -147 -81 -50 -122 -51 -194 -2 -101 68 -100 59
-10 147 104 102 111 102 219 2z m554 20 c46 -30 97 -66 113 -80 l30 -25 -53
-50 -53 -50 -167 0 -167 1 -55 49 -55 49 27 25 c15 14 64 50 110 80 73 48 89
55 135 55 47 1 61 -5 135 -54z m278 17 c-25 -20 -57 -49 -72 -64 -14 -16 -29
-28 -32 -28 -8 0 -186 120 -186 125 0 3 75 5 168 5 l167 0 -45 -38z m233 -37
c42 -40 77 -77 77 -82 0 -4 -30 -29 -67 -55 -57 -42 -72 -48 -115 -48 -41 0
-61 7 -118 44 -37 24 -71 49 -74 55 -4 6 27 44 68 86 68 67 80 75 113 75 33
-1 48 -10 116 -75z m575 3 c61 -40 112 -76 112 -80 0 -4 -27 -30 -61 -58 l-60
-50 -162 0 -163 0 -47 48 -47 48 27 26 c16 14 35 28 43 31 8 4 47 29 85 57
103 73 128 71 273 -22z m484 -8 c43 -45 78 -84 78 -88 0 -4 -26 -26 -58 -50
-85 -64 -118 -58 -289 52 -38 24 -38 23 60 108 96 82 109 81 209 -22z m507 56
c20 -13 71 -45 114 -71 l77 -49 -51 -45 c-80 -71 -78 -70 -254 -71 l-161 0
-44 45 c-24 24 -42 46 -39 48 2 2 55 40 118 85 102 74 118 82 159 82 32 0 57
-7 81 -24z m351 17 c-1 -10 -101 -90 -122 -98 -9 -4 -45 12 -89 39 -40 25 -79
46 -86 46 -7 0 -13 5 -13 10 0 6 58 10 155 10 85 0 155 -3 155 -7z m76 -30
c-3 -21 -9 -71 -13 -110 -3 -43 -11 -73 -17 -73 -6 0 -24 9 -41 20 -16 12 -45
28 -63 37 -18 9 -32 21 -30 28 4 17 140 134 157 134 10 1 12 -8 7 -36z m211
-53 c-4 -50 -10 -108 -13 -130 l-7 -40 -57 0 -58 0 -11 78 c-6 42 -13 101 -17
130 l-7 52 88 0 88 0 -6 -90z m126 69 c59 -30 177 -109 177 -119 0 -4 -29 -33
-65 -64 -57 -51 -69 -57 -102 -54 -41 3 -40 1 -57 128 -3 25 -9 64 -12 88 -7
49 -2 51 59 21z m1079 -10 c34 -17 73 -39 87 -49 14 -9 39 -25 55 -35 l29 -18
-49 -44 c-27 -24 -62 -53 -79 -63 -32 -21 -75 -27 -75 -10 0 6 -20 10 -44 10
-25 0 -48 -4 -51 -10 -3 -5 -48 -10 -99 -10 l-92 0 -38 39 -38 39 31 16 c17 9
53 35 80 59 143 122 175 131 283 76z m293 -5 c-90 -80 -80 -78 -173 -26 -45
26 -82 50 -82 55 0 4 66 7 148 7 l147 -1 -40 -35z m236 -55 c46 -50 85 -95 87
-100 2 -4 -16 -22 -39 -38 -59 -43 -96 -41 -183 11 -105 61 -146 88 -146 94 0
8 16 22 83 77 86 69 97 66 198 -44z m303 63 c-66 -56 -117 -98 -147 -118 l-31
-21 -60 65 c-105 112 -114 102 91 102 l178 -1 -31 -27z m213 6 c21 -11 61 -33
88 -48 70 -37 95 -54 95 -62 0 -4 -37 -35 -81 -68 l-82 -60 -170 2 -170 3 -21
28 -21 29 52 46 c29 26 82 71 118 100 58 45 73 52 111 52 26 0 58 -9 81 -22z
m544 -74 c46 -53 85 -100 87 -105 2 -5 -9 -20 -25 -33 -48 -43 -86 -35 -224
41 -66 36 -118 69 -117 73 2 4 34 33 72 64 97 79 104 78 207 -40z m-9104 -38
c-13 -70 -27 -121 -35 -124 -11 -3 -112 63 -112 75 0 7 163 174 166 170 1 -1
-8 -56 -19 -121z m57 -1 c4 -36 9 -79 13 -95 5 -29 4 -30 -31 -30 -31 0 -36 3
-32 18 2 9 10 52 17 95 6 42 15 77 19 77 4 0 10 -29 14 -65z m6080 -41 c8 -81
6 -90 -19 -81 -23 9 -19 157 5 157 4 0 10 -34 14 -76z m-5853 -14 c3 -61 1
-65 -20 -68 -23 -4 -23 -3 -16 65 4 37 9 72 12 76 12 19 22 -12 24 -73z m6080
-16 c3 -40 0 -49 -14 -52 -19 -4 -22 30 -10 102 5 33 8 36 14 19 4 -11 9 -42
10 -69z m-8161 9 l60 -48 -70 -3 c-39 -2 -102 -2 -141 0 l-71 3 79 47 c43 25
79 47 81 47 1 1 29 -20 62 -46z m1129 -55 c2 -15 -223 -8 -242 6 -16 13 -13
17 35 48 29 20 59 37 67 40 14 4 139 -80 140 -94z m9545 55 c47 -27 85 -51 86
-55 0 -5 -70 -8 -156 -8 -99 0 -154 4 -152 10 4 14 111 99 125 99 7 1 51 -20
97 -46z m-7801 -5 c29 -24 54 -44 56 -45 16 -10 -24 -17 -113 -19 -110 -2
-146 7 -113 29 10 7 40 26 65 44 26 17 48 31 50 32 2 1 27 -18 55 -41z m4902
-13 l60 -40 -114 -3 c-62 -1 -116 0 -120 3 -11 11 88 97 101 88 7 -4 40 -26
73 -48z m763 9 c34 -21 61 -42 62 -46 0 -14 -237 -14 -250 -1 -9 9 95 94 110
90 9 -2 44 -22 78 -43z m1063 4 c38 -24 69 -46 69 -50 0 -5 -61 -8 -135 -8
-74 0 -135 3 -134 8 0 12 103 91 118 92 8 0 45 -19 82 -42z m-5695 18 c3 -8
24 -26 46 -41 22 -15 37 -29 35 -32 -11 -10 -221 -7 -224 4 -2 6 5 14 16 18
10 3 36 19 56 35 41 33 63 38 71 16z m2774 -17 c25 -16 53 -32 63 -35 43 -15
9 -24 -93 -24 -60 0 -110 2 -110 5 0 6 84 85 90 84 3 0 25 -14 50 -30z m-1690
-11 c22 -18 40 -36 40 -40 0 -5 -16 -8 -35 -8 -19 0 -35 5 -35 10 0 6 -15 10
-34 10 -19 0 -38 -4 -41 -10 -9 -15 -47 -12 -43 3 3 9 92 66 106 67 2 0 21
-15 42 -32z m638 0 c28 -18 51 -36 51 -40 1 -5 -45 -8 -101 -8 l-103 1 45 39
c25 22 48 40 51 40 4 0 29 -15 57 -32z m-2142 -4 c19 -15 33 -32 31 -37 -3
-10 -127 -11 -136 -1 -4 4 58 64 66 64 3 0 20 -12 39 -26z m1066 0 c21 -15 38
-31 38 -35 0 -5 -34 -9 -75 -9 -41 0 -75 2 -75 5 0 9 54 63 64 64 6 1 27 -11
48 -25z m1498 -1 c17 -14 30 -30 30 -35 0 -4 -36 -8 -80 -8 -44 0 -80 4 -80 9
0 11 71 60 88 60 7 1 26 -11 42 -26z m1060 -15 c0 -4 -7 -8 -15 -8 -8 0 -15
-4 -15 -10 0 -13 -70 -24 -82 -12 -6 6 4 20 34 40 39 28 44 29 61 15 9 -9 17
-20 17 -25z m-5440 -19 c0 -5 -20 -9 -45 -9 -51 0 -54 4 -23 30 20 16 25 16
45 3 13 -9 23 -19 23 -24z m748 22 c12 -11 22 -22 22 -25 0 -3 -22 -6 -50 -6
-54 0 -59 4 -33 32 20 23 32 22 61 -1z m6502 0 c15 -29 13 -31 -30 -31 -44 0
-45 1 -28 30 16 25 44 26 58 1z m1059 -4 c15 -19 4 -27 -36 -27 -37 0 -41 7
-15 26 22 17 37 17 51 1z m-10469 -18 c0 -5 -7 -9 -15 -9 -15 0 -20 12 -9 23
8 8 24 -1 24 -14z m1078 4 c2 -8 -6 -13 -22 -13 -26 0 -40 12 -29 24 11 11 46
2 51 -11z m10444 -15 c-9 -9 -15 -9 -24 0 -10 10 -10 15 2 22 20 12 38 -6 22
-22z m-11117 -115 c-17 -12 -46 -14 -175 -10 -152 4 -213 14 -177 26 9 3 96 5
194 3 162 -3 176 -5 158 -19z m1095 11 c0 -10 -54 -24 -71 -19 -29 10 -22 23
14 27 32 3 57 0 57 -8z m1776 3 c3 -3 3 -10 -1 -16 -9 -16 -326 -15 -360 1
-24 11 -25 13 -8 19 21 9 360 5 369 -4z m1094 4 c12 -1 11 -4 -3 -18 -15 -16
-38 -17 -192 -16 -96 1 -183 4 -195 8 -25 8 -26 22 -3 27 15 2 342 2 393 -1z
m2628 -13 c18 -5 31 -12 28 -16 -6 -11 -136 -2 -136 9 0 13 42 29 60 22 8 -3
30 -9 48 -15z m526 16 c13 -5 14 -9 5 -20 -17 -21 -371 -20 -389 1 -11 13 10
15 161 18 96 1 182 4 191 5 9 1 24 -1 32 -4z m2859 -4 c25 0 28 -3 19 -12 -9
-9 -61 -14 -168 -17 -157 -3 -224 2 -224 19 0 8 294 20 328 13 8 -2 28 -3 45
-3z m1097 0 c9 -1 5 -6 -10 -15 -19 -11 -66 -14 -190 -15 -163 0 -210 5 -210
20 0 5 10 10 23 12 17 2 278 1 387 -2z m-10770 -10 c19 -12 21 -12 -87 -14
-85 -2 -119 6 -75 17 33 9 147 7 162 -3z m138 1 c11 -7 10 -10 -3 -15 -27 -10
-52 -7 -65 9 -11 13 -8 15 21 15 19 0 40 -4 47 -9z m437 -1 c15 -24 -154 -25
-178 -1 -8 8 15 11 80 11 51 0 95 -4 98 -10z m483 -7 c3 -10 -20 -13 -94 -13
-90 0 -114 9 -59 23 39 10 148 2 153 -10z m142 7 c0 -23 -80 -26 -88 -2 -2 8
10 12 42 12 25 0 46 -4 46 -10z m405 -10 c0 -15 -53 -17 -137 -4 -71 11 -39
25 50 22 68 -2 87 -6 87 -18z m60 11 c7 -12 -12 -24 -25 -16 -11 7 -4 25 10
25 5 0 11 -4 15 -9z m163 -8 c3 -10 -16 -13 -72 -13 -62 0 -76 3 -76 15 0 13
12 15 72 13 46 -2 73 -7 76 -15z m49 -5 c-3 -8 -6 -5 -6 6 -1 11 2 17 5 13 3
-3 4 -12 1 -19z m73 7 c0 -8 -6 -15 -14 -15 -17 0 -28 14 -19 24 12 12 33 6
33 -9z m915 5 c10 -16 -28 -25 -101 -25 -42 0 -69 4 -71 12 -2 6 4 13 14 16
35 9 152 7 158 -3z m133 -2 c-3 -8 -22 -13 -48 -13 -26 0 -45 5 -47 13 -3 8
10 12 47 12 37 0 50 -4 48 -12z m108 1 c10 -18 -13 -32 -40 -25 -37 9 -34 36
3 36 17 0 33 -5 37 -11z m799 0 c10 -15 6 -16 -55 -23 -56 -7 -88 3 -76 23 9
14 123 14 131 0z m135 -4 c0 -11 -12 -15 -44 -15 -43 0 -63 10 -49 24 3 3 26
6 50 6 32 0 43 -4 43 -15z m130 0 c24 -14 22 -14 -32 -15 -54 0 -68 7 -51 23
11 12 57 7 83 -8z m493 0 c-2 -6 -66 -11 -161 -13 -128 -2 -161 0 -177 13 -18
13 -2 14 160 12 114 -1 179 -6 178 -12z m284 -1 c5 -14 -72 -25 -101 -14 -21
8 -21 8 4 19 31 13 92 10 97 -5z m141 4 c-5 -14 -61 -23 -85 -14 -27 11 -2 26
43 26 32 0 44 -4 42 -12z m151 -2 c9 -11 7 -15 -11 -20 -53 -14 -108 0 -94 23
10 16 91 14 105 -3z m523 -2 c-19 -13 -52 -15 -207 -12 -130 2 -188 7 -197 16
-10 9 32 12 207 12 202 0 218 -1 197 -16z m228 1 c11 -13 5 -15 -46 -15 -56 1
-58 1 -34 15 33 19 64 19 80 0z m143 0 c-4 -15 -86 -12 -91 3 -3 10 8 12 44
10 27 -2 48 -7 47 -13z m907 0 c11 -13 6 -15 -36 -15 -58 0 -48 17 17 29 4 0
12 -6 19 -14z m138 3 c-5 -14 -61 -23 -85 -14 -27 11 -2 26 43 26 32 0 44 -4
42 -12z m182 2 c8 -5 12 -11 10 -13 -10 -9 -151 -14 -155 -6 -15 24 111 41
145 19z m285 -5 c0 -5 -32 -11 -71 -13 -55 -2 -74 1 -84 13 -12 14 -5 16 71
13 47 -2 84 -7 84 -13z m45 6 c0 -6 -4 -13 -10 -16 -5 -3 -10 1 -10 9 0 9 5
16 10 16 6 0 10 -4 10 -9z m170 -6 c0 -12 -16 -15 -80 -15 -73 0 -91 6 -73 23
3 4 39 7 80 7 58 0 73 -3 73 -15z m249 9 c58 -12 31 -24 -54 -24 -78 0 -96 5
-78 23 8 9 90 9 132 1z m526 -7 c-28 -17 -369 -17 -386 1 -10 10 29 12 197 12
169 -1 205 -3 189 -13z m303 1 c-3 -7 -15 -13 -28 -13 -13 0 -25 6 -27 13 -3
8 6 12 27 12 21 0 30 -4 28 -12z m241 6 c56 -11 33 -24 -43 -24 -69 0 -95 8
-79 24 8 8 81 8 122 0z m839 -6 c-6 -18 -69 -28 -92 -16 -15 8 -16 12 -5 19
22 14 101 11 97 -3z m242 -3 c11 -13 0 -15 -94 -15 -88 0 -106 3 -106 15 0 12
17 15 94 15 71 0 97 -4 106 -15z m-8975 -5 c4 -6 -5 -10 -19 -10 -14 0 -26 5
-26 10 0 6 9 10 19 10 11 0 23 -4 26 -10z m775 -6 c0 -11 -8 -14 -32 -12 -46
4 -49 28 -4 28 26 0 36 -4 36 -16z m6780 6 c0 -5 -9 -10 -20 -10 -11 0 -20 5
-20 10 0 6 9 10 20 10 11 0 20 -4 20 -10z m1040 2 c0 -13 -12 -22 -22 -16 -10
6 -1 24 13 24 5 0 9 -4 9 -8z m-9080 -324 l-1 -173 -24 47 c-14 27 -43 60 -69
79 -25 17 -47 38 -50 45 -8 21 -77 47 -123 46 -42 -1 -43 0 -43 32 0 19 6 38
13 44 23 19 61 18 82 -3 23 -24 115 -30 115 -7 0 6 -8 12 -17 12 -38 0 16 34
64 41 27 3 49 7 51 8 1 0 2 -77 2 -171z m6013 157 c42 -6 47 -9 47 -31 0 -24
3 -25 48 -22 38 2 46 6 44 21 -2 14 5 17 54 17 74 0 94 -17 94 -78 0 -41 -1
-44 -22 -37 -51 16 -133 16 -169 1 -48 -20 -128 -114 -150 -177 -22 -62 -27
-68 -39 -49 -11 17 -14 353 -4 363 4 4 16 5 28 2 12 -2 42 -7 69 -10z m2148
-25 c29 -35 72 -40 90 -12 8 13 20 17 38 14 39 -7 51 -21 51 -58 0 -31 -2 -33
-45 -39 -35 -6 -62 -22 -123 -70 -45 -36 -85 -77 -92 -94 -7 -17 -16 -31 -21
-31 -5 0 -9 75 -9 166 l0 167 43 -7 c29 -4 50 -15 68 -36z m-6153 -152 c-2
-134 -6 -182 -15 -186 -8 -2 -13 6 -13 23 0 25 -15 64 -29 75 -4 3 -23 28 -44
56 -49 69 -110 99 -185 91 -30 -3 -64 -13 -77 -21 -14 -9 -27 -16 -30 -16 -4
0 -5 30 -3 68 l3 67 73 5 c70 5 72 4 72 -17 0 -21 5 -23 51 -23 49 0 51 1 47
24 -6 29 4 33 95 35 l57 1 -2 -182z m-1800 -303 c2 -2 -4 -18 -14 -36 l-16
-33 -18 35 c-13 25 -15 36 -7 41 10 6 45 2 55 -7z m7678 -5 c-20 -69 -17 -67
-37 -29 -25 46 -24 49 12 49 26 0 29 -3 25 -20z m-5772 -8 c-1 -7 -2 -23 -2
-37 -1 -14 -7 -25 -12 -25 -15 0 -34 46 -27 64 7 17 43 15 41 -2z m-1929 -111
c-3 -16 -14 -36 -22 -43 -15 -12 -16 -9 -10 21 7 34 26 65 34 57 3 -3 2 -18
-2 -35z m7700 6 c22 -42 16 -74 -7 -37 -21 33 -32 70 -20 70 5 0 17 -15 27
-33z m-2060 -13 c18 -43 19 -54 5 -54 -10 0 -19 17 -34 68 -12 37 12 25 29
-14z m-3710 -6 c-9 -42 -14 -50 -26 -43 -5 4 -6 18 -3 33 9 35 13 42 25 42 7
0 8 -13 4 -32z m2006 -51 c-8 -8 -11 -1 -11 24 0 46 14 60 18 19 2 -18 -1 -37
-7 -43z m-403 25 c2 -18 -1 -32 -7 -32 -6 0 -11 6 -11 13 0 6 -3 23 -7 36 -4
18 -2 23 8 19 8 -2 15 -19 17 -36z m4302 -113 c0 -3 -11 -4 -25 -1 -25 4 -70
54 -58 65 6 6 82 -53 83 -64z m-8156 -20 c-6 -10 -64 -13 -64 -3 0 3 5 14 10
25 10 18 12 18 35 3 14 -9 22 -20 19 -25z m8346 27 c0 -2 3 -11 6 -20 5 -12 0
-16 -18 -16 -31 0 -41 10 -27 27 11 12 39 19 39 9z m-8236 -35 c3 -5 -12 -11
-34 -13 -28 -2 -40 0 -40 9 0 15 66 18 74 4z m4001 -1 c5 0 4 -5 -2 -11 -14
-14 -115 -7 -120 8 -3 8 13 10 54 8 32 -3 62 -4 68 -5z m2089 4 c65 -9 57 -24
-13 -24 -56 0 -79 9 -64 24 8 8 19 8 77 0z m2064 -4 c6 0 12 -4 12 -10 0 -16
-46 -11 -61 7 -13 15 -11 16 11 10 14 -4 31 -7 38 -7z m-6213 -10 c-3 -5 -28
-10 -56 -10 -27 0 -49 5 -49 10 0 6 25 10 56 10 34 0 53 -4 49 -10z"/>
</g>
</svg>
