<?xml version="1.0" standalone="no"?>
<!DOCTYPE svg PUBLIC "-//W3C//DTD SVG 20010904//EN"
 "http://www.w3.org/TR/2001/REC-SVG-20010904/DTD/svg10.dtd">
<svg version="1.0" xmlns="http://www.w3.org/2000/svg"
 width="1150.000000pt" height="847.000000pt" viewBox="0 0 1150.000000 847.000000"
 preserveAspectRatio="xMidYMid meet">

<g transform="translate(0.000000,847.000000) scale(0.100000,-0.100000)"
fill="#000000" stroke="none">
<path d="M0 8080 l0 -390 635 0 c623 0 635 0 635 -20 0 -14 -9 -20 -37 -25
-85 -13 -88 -15 -89 -73 -1 -51 -2 -53 -47 -82 -25 -16 -54 -44 -63 -62 -21
-40 -33 -198 -15 -198 6 0 10 -6 8 -12 -1 -7 3 -12 9 -11 6 1 24 -20 40 -47
16 -27 41 -56 57 -65 54 -32 165 -135 171 -159 3 -14 2 -35 -2 -48 -5 -13 -4
-63 2 -115 10 -85 14 -95 45 -128 31 -31 40 -35 85 -34 88 2 108 10 133 54 19
33 22 48 17 90 -4 28 -8 66 -9 85 -3 31 -6 35 -29 32 -30 -3 -37 25 -8 35 9 3
30 15 45 26 l28 19 -6 -33 -6 -34 81 -27 c79 -26 83 -26 129 -11 46 15 49 18
84 94 l36 79 -24 43 c-23 40 -32 46 -105 71 -44 16 -80 32 -80 36 0 5 16 14
36 20 55 19 33 23 -55 11 -96 -13 -132 -4 -128 31 1 18 -2 22 -17 20 -15 -3
-17 0 -10 15 10 21 18 325 10 358 -9 35 -61 55 -121 45 -70 -12 -75 -12 -75 5
0 13 113 15 953 15 925 0 953 -1 954 -19 1 -16 -9 -19 -80 -26 -45 -4 -88 -11
-94 -17 -9 -7 -13 -39 -13 -92 -1 -65 -5 -91 -25 -131 -31 -63 -31 -100 1
-189 19 -53 38 -84 76 -122 l50 -52 -24 -48 c-14 -27 -33 -80 -43 -117 -23
-85 -12 -102 33 -52 18 19 37 35 41 35 5 0 12 14 16 30 4 17 9 30 12 30 3 0
18 -11 35 -25 16 -14 36 -25 44 -25 9 0 12 -4 9 -10 -3 -5 -27 -10 -52 -10
l-45 0 3 -86 4 -86 40 -35 40 -34 85 6 c78 6 88 9 118 38 l33 32 -3 90 -3 90
-38 5 -39 5 34 19 c18 10 44 28 56 40 l24 21 -7 -35 c-6 -35 -6 -35 55 -63 66
-29 109 -33 158 -16 23 8 32 18 38 47 4 20 8 39 9 42 16 67 15 80 -10 118 -21
32 -87 77 -115 77 -3 0 -20 6 -37 14 -38 16 -42 34 -10 49 19 9 16 11 -25 11
-41 1 -48 4 -48 21 0 11 -6 20 -12 20 -10 0 -12 43 -10 189 5 234 6 231 -118
231 -64 0 -80 3 -80 15 0 13 118 15 1005 15 887 0 1005 -2 1005 -15 0 -12 -14
-15 -69 -15 -38 0 -81 -4 -95 -10 l-26 -10 2 -117 2 -118 5 110 6 110 88 3 87
3 0 -26 c0 -23 3 -25 46 -25 44 0 46 1 42 25 l-5 25 86 0 c54 0 92 -5 99 -12
15 -15 17 -344 2 -353 -5 -3 -11 0 -12 7 0 7 -2 18 -3 23 -19 118 -37 152
-104 194 -41 26 -57 31 -112 31 -53 0 -72 -5 -105 -26 -52 -34 -64 -54 -84
-139 -11 -46 -21 -69 -30 -67 -9 2 -10 -4 -5 -20 4 -13 8 -38 8 -55 0 -18 4
-33 8 -33 13 0 18 -43 6 -54 -7 -6 -33 -24 -58 -38 -25 -15 -57 -45 -72 -66
-22 -34 -25 -49 -25 -117 1 -71 3 -78 25 -88 21 -9 34 -6 89 23 54 30 64 39
64 62 0 33 13 43 31 22 7 -8 31 -25 53 -37 l41 -22 -55 -3 -55 -3 3 -89 3 -89
40 -35 c39 -36 40 -36 132 -36 l93 0 37 38 c37 38 37 38 37 125 l0 87 -45 0
c-53 0 -58 13 -12 36 17 9 42 25 53 36 l21 19 7 -41 c6 -38 10 -42 69 -71 52
-26 66 -29 90 -20 26 10 27 13 27 87 0 105 -28 150 -122 200 -70 36 -76 42
-57 61 14 14 39 6 39 -13 0 -8 5 -14 10 -14 6 0 10 23 10 50 0 28 -4 50 -10
50 -5 0 -10 -7 -10 -15 0 -8 -7 -15 -15 -15 -8 0 -15 6 -15 14 0 7 7 19 15 26
21 18 22 356 1 386 -12 16 -29 20 -105 22 -69 3 -91 7 -91 18 0 12 152 14 988
16 1049 3 1135 2 1140 -21 2 -11 -10 -13 -61 -9 -42 4 -75 1 -95 -8 l-32 -13
0 -183 c1 -136 4 -189 14 -208 25 -44 7 -57 -66 -49 -35 3 -70 2 -78 -2 -12
-7 -10 -8 6 -9 12 0 27 -7 34 -15 7 -8 23 -15 36 -15 28 0 30 -10 7 -53 l-16
-32 -13 31 c-18 43 -32 46 -84 19 -25 -13 -57 -29 -72 -35 -15 -6 -36 -27 -47
-46 -21 -35 -21 -35 -2 -104 25 -88 24 -87 72 -100 36 -10 49 -8 105 14 35 14
71 26 79 26 19 0 19 8 1 42 -22 42 -1 44 43 6 21 -18 46 -38 57 -45 17 -10 14
-12 -22 -12 l-42 -1 -7 -85 c-6 -76 -5 -87 14 -113 32 -46 42 -50 131 -57 l85
-7 34 33 c36 34 50 77 51 155 0 44 -10 54 -54 54 -36 0 -38 12 -6 31 17 11 30
23 30 29 0 17 20 11 27 -7 12 -34 86 -114 95 -105 9 9 -12 77 -53 178 -11 27
-10 37 5 68 16 35 78 86 103 86 8 0 11 9 7 29 -4 18 2 43 16 71 30 58 25 141
-11 191 -19 28 -25 50 -29 119 l-5 85 -35 7 c-19 4 -60 11 -90 15 -40 6 -56
13 -58 26 -3 16 51 17 1018 17 813 0 1021 -3 1017 -12 -3 -9 -23 -12 -69 -10
-111 6 -108 11 -108 -194 0 -96 4 -183 10 -193 7 -14 2 -25 -26 -52 -38 -37
-71 -42 -179 -27 -45 7 -47 6 -17 -4 17 -6 32 -16 32 -22 0 -6 -35 -24 -78
-39 -73 -26 -80 -31 -99 -71 l-21 -43 36 -76 c35 -73 39 -77 85 -91 44 -14 53
-14 110 4 75 24 106 25 114 4 3 -8 1 -47 -4 -86 -9 -67 -8 -72 18 -112 28 -45
54 -56 140 -56 49 0 84 44 93 120 10 73 16 91 27 85 14 -9 11 23 -7 57 -29 55
-27 58 185 236 28 24 51 48 51 55 0 6 11 23 25 37 35 36 47 113 29 182 -16 60
-40 89 -95 113 -37 17 -39 20 -39 65 0 26 -6 52 -12 58 -7 5 -37 13 -65 17
-47 6 -53 9 -53 31 l0 24 870 0 870 0 0 390 0 390 -5750 0 -5750 0 0 -390z
m1500 -602 l-1 -173 -24 47 c-14 27 -43 60 -69 79 -25 17 -47 38 -50 45 -8 21
-77 47 -123 46 -42 -1 -43 0 -43 32 0 19 6 38 13 44 23 19 61 18 82 -3 23 -24
115 -30 115 -7 0 6 -8 12 -17 12 -38 0 16 34 64 41 27 3 49 7 51 8 1 0 2 -77
2 -171z m6013 157 c42 -6 47 -9 47 -31 0 -24 3 -25 48 -22 38 2 46 6 44 21 -2
14 5 17 54 17 74 0 94 -17 94 -78 0 -41 -1 -44 -22 -37 -51 16 -133 16 -169 1
-48 -20 -128 -114 -150 -177 -22 -62 -27 -68 -39 -49 -11 17 -14 353 -4 363 4
4 16 5 28 2 12 -2 42 -7 69 -10z m2148 -25 c29 -35 72 -40 90 -12 8 13 20 17
38 14 39 -7 51 -21 51 -58 0 -31 -2 -33 -45 -39 -35 -6 -62 -22 -123 -70 -45
-36 -85 -77 -92 -94 -7 -17 -16 -31 -21 -31 -5 0 -9 75 -9 166 l0 167 43 -7
c29 -4 50 -15 68 -36z m-6153 -152 c-2 -134 -6 -182 -15 -186 -8 -2 -13 6 -13
23 0 25 -15 64 -29 75 -4 3 -23 28 -44 56 -49 69 -110 99 -185 91 -30 -3 -64
-13 -77 -21 -14 -9 -27 -16 -30 -16 -4 0 -5 30 -3 68 l3 67 73 5 c70 5 72 4
72 -17 0 -21 5 -23 51 -23 49 0 51 1 47 24 -6 29 4 33 95 35 l57 1 -2 -182z
m-1800 -303 c2 -2 -4 -18 -14 -36 l-16 -33 -18 35 c-13 25 -15 36 -7 41 10 6
45 2 55 -7z m7678 -5 c-20 -69 -17 -67 -37 -29 -25 46 -24 49 12 49 26 0 29
-3 25 -20z m-5772 -8 c-1 -7 -2 -23 -2 -37 -1 -14 -7 -25 -12 -25 -15 0 -34
46 -27 64 7 17 43 15 41 -2z m-1929 -111 c-3 -16 -14 -36 -22 -43 -15 -12 -16
-9 -10 21 7 34 26 65 34 57 3 -3 2 -18 -2 -35z m7700 6 c22 -42 16 -74 -7 -37
-21 33 -32 70 -20 70 5 0 17 -15 27 -33z m-2060 -13 c18 -43 19 -54 5 -54 -10
0 -19 17 -34 68 -12 37 12 25 29 -14z m-3710 -6 c-9 -42 -14 -50 -26 -43 -5 4
-6 18 -3 33 9 35 13 42 25 42 7 0 8 -13 4 -32z m2006 -51 c-8 -8 -11 -1 -11
24 0 46 14 60 18 19 2 -18 -1 -37 -7 -43z m-403 25 c2 -18 -1 -32 -7 -32 -6 0
-11 6 -11 13 0 6 -3 23 -7 36 -4 18 -2 23 8 19 8 -2 15 -19 17 -36z m4302
-113 c0 -3 -11 -4 -25 -1 -25 4 -70 54 -58 65 6 6 82 -53 83 -64z m-8156 -20
c-6 -10 -64 -13 -64 -3 0 3 5 14 10 25 10 18 12 18 35 3 14 -9 22 -20 19 -25z
m8346 27 c0 -2 3 -11 6 -20 5 -12 0 -16 -18 -16 -31 0 -41 10 -27 27 11 12 39
19 39 9z m-8236 -35 c3 -5 -12 -11 -34 -13 -28 -2 -40 0 -40 9 0 15 66 18 74
4z m4001 -1 c5 0 4 -5 -2 -11 -14 -14 -115 -7 -120 8 -3 8 13 10 54 8 32 -3
62 -4 68 -5z m2089 4 c65 -9 57 -24 -13 -24 -56 0 -79 9 -64 24 8 8 19 8 77 0z
m2064 -4 c6 0 12 -4 12 -10 0 -16 -46 -11 -61 7 -13 15 -11 16 11 10 14 -4 31
-7 38 -7z m-6213 -10 c-3 -5 -28 -10 -56 -10 -27 0 -49 5 -49 10 0 6 25 10 56
10 34 0 53 -4 49 -10z"/>
</g>
</svg>
