<svg width="1658" height="1164" viewBox="0 0 1658 1164" fill="none" xmlns="http://www.w3.org/2000/svg" xmlns:xlink="http://www.w3.org/1999/xlink">
<g filter="url(#filter0_d_1119_13897)">
<path d="M427.588 1030.53C416.626 1091.59 346.066 1120.72 295.223 1085.17L147.271 981.738C92.2235 943.255 101.454 859.136 163.537 833.506L343.388 759.257C405.471 733.627 471.354 786.736 459.486 852.845L427.588 1030.53Z" fill="#E0127A"/>
</g>
<g filter="url(#filter1_d_1119_13897)">
<path d="M1384.05 891.269C1372.58 951.436 1303.17 980.092 1252.6 945.537L851.859 671.717C796.065 633.593 804.916 548.754 867.378 522.968L1358.98 320.017C1421.44 294.231 1487.56 348.118 1474.91 414.499L1384.05 891.269Z" fill="#11ADC4"/>
</g>
<g filter="url(#filter2_d_1119_13897)">
<path d="M473 235C473 355.95 371.592 454 246.5 454C121.407 454 20 355.95 20 235C20 114.05 121.407 16 246.5 16C371.592 16 473 114.05 473 235Z" fill="#FDC618"/>
</g>
<rect x="994" y="455" width="397" height="346" fill="url(#pattern0)"/>
<defs>
<filter id="filter0_d_1119_13897" x="95.9617" y="746.684" width="379.921" height="377.901" filterUnits="userSpaceOnUse" color-interpolation-filters="sRGB">
<feFlood flood-opacity="0" result="BackgroundImageFix"/>
<feColorMatrix in="SourceAlpha" type="matrix" values="0 0 0 0 0 0 0 0 0 0 0 0 0 0 0 0 0 0 127 0" result="hardAlpha"/>
<feOffset dy="9"/>
<feGaussianBlur stdDeviation="7.5"/>
<feComposite in2="hardAlpha" operator="out"/>
<feColorMatrix type="matrix" values="0 0 0 0 0 0 0 0 0 0.470588 0 0 0 0 0.941176 0 0 0 0.25 0"/>
<feBlend mode="normal" in2="BackgroundImageFix" result="effect1_dropShadow_1119_13897"/>
<feBlend mode="normal" in="SourceGraphic" in2="effect1_dropShadow_1119_13897" result="shape"/>
</filter>
<filter id="filter1_d_1119_13897" x="799.803" y="307.439" width="691.678" height="676.99" filterUnits="userSpaceOnUse" color-interpolation-filters="sRGB">
<feFlood flood-opacity="0" result="BackgroundImageFix"/>
<feColorMatrix in="SourceAlpha" type="matrix" values="0 0 0 0 0 0 0 0 0 0 0 0 0 0 0 0 0 0 127 0" result="hardAlpha"/>
<feOffset dy="9"/>
<feGaussianBlur stdDeviation="7.5"/>
<feComposite in2="hardAlpha" operator="out"/>
<feColorMatrix type="matrix" values="0 0 0 0 0 0 0 0 0 0.470588 0 0 0 0 0.941176 0 0 0 0.25 0"/>
<feBlend mode="normal" in2="BackgroundImageFix" result="effect1_dropShadow_1119_13897"/>
<feBlend mode="normal" in="SourceGraphic" in2="effect1_dropShadow_1119_13897" result="shape"/>
</filter>
<filter id="filter2_d_1119_13897" x="0" y="0" width="493" height="478" filterUnits="userSpaceOnUse" color-interpolation-filters="sRGB">
<feFlood flood-opacity="0" result="BackgroundImageFix"/>
<feColorMatrix in="SourceAlpha" type="matrix" values="0 0 0 0 0 0 0 0 0 0 0 0 0 0 0 0 0 0 127 0" result="hardAlpha"/>
<feOffset dy="4"/>
<feGaussianBlur stdDeviation="10"/>
<feComposite in2="hardAlpha" operator="out"/>
<feColorMatrix type="matrix" values="0 0 0 0 0 0 0 0 0 0.470588 0 0 0 0 0.941176 0 0 0 0.25 0"/>
<feBlend mode="normal" in2="BackgroundImageFix" result="effect1_dropShadow_1119_13897"/>
<feBlend mode="normal" in="SourceGraphic" in2="effect1_dropShadow_1119_13897" result="shape"/>
</filter>
<pattern id="pattern0" patternContentUnits="objectBoundingBox" width="1" height="1">
<use xlink:href="#image0_1119_13897" transform="matrix(0.001002 0 0 0.0011497 0 -0.00126843)"/>
</pattern>
</defs>
</svg>

