<svg width="78" height="78" viewBox="0 0 78 78" fill="none" xmlns="http://www.w3.org/2000/svg">
<path d="M55.4415 0.253937C54.3753 0.710869 53.8575 1.44197 53.6899 2.67569C53.4919 4.15312 53.4614 4.24451 53.035 4.35112C52.8065 4.41205 52.1363 4.67098 51.5423 4.94514L50.4609 5.44777L49.6689 4.85376C48.3133 3.81804 47.308 3.57433 46.2571 4.03127C45.9829 4.13789 45.0081 5.0213 44.0638 5.96563C42.693 7.3669 42.3427 7.80861 42.2665 8.28077C42.0685 9.28603 42.2665 9.98667 43.0129 11.0376C43.3936 11.5859 43.7135 12.1038 43.7135 12.1952C43.7135 12.2866 43.5459 12.6826 43.3479 13.0786C43.1499 13.4746 42.9062 14.0839 42.7996 14.4342C42.6168 15.013 42.5407 15.0891 42.0533 15.1805C39.7686 15.546 39.2507 15.8202 38.6872 16.9321C38.4283 17.4347 38.3826 17.8307 38.3826 19.7956C38.3826 21.0445 38.4587 22.263 38.5501 22.5067C38.7329 23.0246 39.3878 23.7252 39.9057 23.9994C40.1951 24.1517 42.099 24.5325 42.5559 24.5325C42.6016 24.5325 42.6473 24.6086 42.6473 24.7C42.6473 24.7914 42.891 25.4768 43.1956 26.2231L43.7439 27.5939L43.3175 28.1879C42.099 29.8786 41.9162 30.7163 42.495 31.9196C42.8758 32.7116 45.4651 35.2704 46.1962 35.5751C47.3385 36.0472 48.2676 35.834 49.6384 34.783C50.004 34.5089 50.3847 34.2804 50.4914 34.2804C50.5828 34.2804 51.0092 34.448 51.4205 34.646C51.8317 34.844 52.4562 35.1029 52.8217 35.1943C53.1721 35.3009 53.4614 35.4228 53.4614 35.4532C53.4614 35.9101 53.8422 37.7988 53.9945 38.0882C54.2687 38.6061 54.9693 39.261 55.4872 39.4438C55.7309 39.5352 56.9494 39.6113 58.2136 39.6113C60.7876 39.6113 61.2294 39.4895 61.9909 38.5756C62.4022 38.073 62.5392 37.6313 62.8134 35.9406C62.9048 35.4532 62.9809 35.3771 63.5597 35.1943C63.91 35.0877 64.5193 34.844 64.9153 34.646C65.3113 34.448 65.7073 34.2804 65.7987 34.2804C65.8901 34.2804 66.408 34.6003 66.9563 34.981C68.0072 35.7274 68.7079 35.9254 69.7131 35.7274C70.1853 35.6512 70.627 35.3009 72.0283 33.9301C72.9726 32.9858 73.856 32.011 73.9626 31.7368C74.4196 30.6859 74.1759 29.6806 73.1401 28.325L72.5461 27.533L73.0488 26.4516C73.3229 25.8576 73.5971 25.1722 73.6428 24.9589C73.7342 24.6238 73.856 24.5172 74.3129 24.4563C76.5215 24.1212 77.1764 23.7709 77.6943 22.6286C78.0751 21.8061 78.1055 17.9678 77.7552 17.1149C77.2983 16.0334 76.5062 15.5004 75.0897 15.3176C73.8712 15.1653 73.7646 15.1196 73.6428 14.6626C73.5818 14.4342 73.3229 13.764 73.0488 13.17L72.5461 12.0886L73.1401 11.2965C74.1759 9.92574 74.4196 8.89002 73.9474 7.86953C73.6428 7.22982 70.5661 4.18358 70.0025 3.98558C68.9973 3.58957 68.0072 3.86373 66.6974 4.85376L65.9053 5.44777L64.8239 4.94514C64.2299 4.67098 63.5597 4.41205 63.3313 4.35112C62.8743 4.22927 62.8286 4.12266 62.6763 2.90416C62.4935 1.48766 61.9605 0.695641 60.879 0.238705C60.1022 -0.0811501 56.2031 -0.0811501 55.4415 0.253937ZM59.4625 3.69618C59.5082 3.89419 59.5539 4.21404 59.5539 4.42728C59.5692 5.7524 60.3612 6.86427 61.5797 7.24505C62.0214 7.39736 63.0419 7.80861 63.8643 8.18938C65.1895 8.79863 65.4636 8.87479 66.1643 8.81386C66.8344 8.75294 67.1543 8.61586 68.0072 8.00661L69.0277 7.27551L69.8654 8.12846L70.7184 8.96618L69.9873 9.98667C68.9211 11.4793 68.8906 12.119 69.8045 14.1143C70.1701 14.952 70.5965 15.9725 70.7336 16.4142C71.1296 17.6327 72.2567 18.4247 73.5666 18.44C74.5719 18.4552 74.6328 18.5314 74.6328 19.8108C74.6328 21.075 74.5719 21.1816 73.7799 21.1816C72.2415 21.1816 71.0839 22.0498 70.6118 23.5424C70.4595 24.0451 70.0634 25.0198 69.7436 25.69C68.8602 27.533 68.9211 28.2641 70.0939 29.8024L70.7184 30.6402L69.8654 31.5083L69.0125 32.3613L68.3576 31.8739C66.7887 30.6859 65.8444 30.5183 64.4584 31.2189C63.9862 31.4626 63.0876 31.8282 62.4783 32.0567C60.1479 32.8944 59.8281 33.2599 59.4778 35.6817L59.3864 36.2605H58.1831C56.8428 36.2605 56.9189 36.3214 56.7362 34.9658C56.5229 33.3665 55.9289 32.7421 54.0707 32.1176C53.5224 31.95 52.6085 31.5693 52.0145 31.2799C50.4 30.5031 49.745 30.5945 48.0848 31.813L47.3385 32.3461L46.4856 31.4931L45.6326 30.6402L45.9677 30.2137C46.6531 29.3303 47.11 28.4469 47.171 27.8072C47.2471 27.2741 47.1405 26.9085 46.6379 25.7966C46.3028 25.0655 45.922 24.106 45.7849 23.6947C45.2823 22.1259 44.536 21.4557 43.0738 21.2577C41.6268 21.0597 41.7334 21.1664 41.7334 19.8108V18.6075L42.4645 18.5161C44.0029 18.3029 44.9167 17.846 45.3128 17.0539C45.4498 16.8255 45.724 16.1248 45.9372 15.5156C46.1657 14.9063 46.5313 14.0077 46.775 13.5355C47.4756 12.1495 47.308 11.2052 46.12 9.63635L45.6326 8.98141L46.4856 8.12846L47.3537 7.27551L48.1915 7.89999C49.7298 9.07279 50.4609 9.13372 52.3039 8.25031C52.974 7.93045 53.9488 7.53444 54.4515 7.38213C55.9441 6.90997 56.8123 5.7524 56.8123 4.21404C56.8123 3.42202 56.9189 3.3611 58.1831 3.3611C59.2798 3.3611 59.3711 3.39156 59.4625 3.69618Z" fill="#FFB300"/>
<path d="M55.8832 13.1693C52.9283 14.205 51.1768 16.7029 51.1768 19.8862C51.1768 23.8006 54.223 26.8164 58.1831 26.8164C61.336 26.8164 63.8643 24.9734 64.8848 21.9424C65.1742 21.1199 65.2047 20.7087 65.159 19.475C65.0981 18.1803 65.0219 17.8757 64.5345 16.84C63.6054 14.9056 61.8081 13.413 59.8433 12.9713C58.6553 12.6971 56.9951 12.7732 55.8832 13.1693ZM60.0718 16.4287C61.336 17.1141 62.0518 18.3174 62.0518 19.8101C62.0518 22.308 59.7671 24.1814 57.3759 23.6331C53.9184 22.8715 53.1264 18.2869 56.1269 16.5201C56.5229 16.2917 57.056 16.0632 57.3149 15.987C58.0765 15.8043 59.2493 15.987 60.0718 16.4287Z" fill="#FFB300"/>
<path d="M17.2112 26.8021C16.6629 27.0306 15.5054 27.518 14.6372 27.8835C12.8551 28.6299 12.124 29.1934 11.7128 30.092C11.332 30.9298 11.3472 31.5999 11.8194 33.3515L12.2306 34.8442L10.3724 36.7024L8.51424 38.5606L7.09773 38.1646C5.4223 37.7076 4.56936 37.6924 3.73164 38.0732C2.74161 38.5149 2.26945 39.2155 1.15757 41.8962C0 44.6683 -0.12185 45.2318 0.152312 46.2371C0.411242 47.1814 1.06618 47.8516 2.65023 48.7807L3.99057 49.588V52.162V54.7513L2.61976 55.5586C0.63971 56.7162 0 57.5843 0 59.077C0 59.3664 0.487398 60.7981 1.09665 62.2756C2.01052 64.5602 2.28468 65.0629 2.833 65.6112C3.48794 66.2509 4.2495 66.5707 5.08722 66.5707C5.31569 66.5707 6.21433 66.388 7.0825 66.1595L8.63608 65.7635L9.2301 66.4337C9.9612 67.2714 10.5248 67.8197 11.4843 68.6879L12.2306 69.3581L11.8346 70.9116C11.2254 73.2725 11.3168 74.0797 12.383 75.1611C12.9313 75.7095 13.4339 75.9836 15.7186 76.8975C17.196 77.5067 18.6277 77.9941 18.9171 77.9941C20.4098 77.9941 21.278 77.3544 22.4355 75.3744L23.2428 74.0036H25.8321H28.4062L29.2134 75.3439C30.371 77.3087 31.2849 77.9941 32.7471 77.9941C33.204 77.9941 37.0879 76.5319 38.3674 75.8618C39.4945 75.283 40.2103 74.1559 40.2103 72.9526C40.2103 72.6023 40.0428 71.6884 39.8296 70.8964L39.4336 69.4799L41.2918 67.6217L43.15 65.7635L44.6426 66.1747C45.4651 66.388 46.3181 66.5707 46.5617 66.5707C47.7498 66.5707 48.953 65.8244 49.4861 64.7582C49.6385 64.4536 50.1868 63.2047 50.7046 61.9557C51.7251 59.473 51.847 58.7419 51.3443 57.6605C50.9788 56.8685 50.4609 56.4115 48.9226 55.4824L47.6584 54.7209V52.162V49.6032L48.9226 48.8569C50.4609 47.943 50.9788 47.4861 51.3443 46.694C51.8622 45.5822 51.7404 44.8968 50.5371 41.9571C49.3643 39.1241 48.9835 38.5606 47.9021 38.0732C47.0796 37.6924 46.4094 37.7076 44.6274 38.1646L43.1195 38.5454L41.2765 36.7176L39.4488 34.8746L39.8296 33.3668C40.2865 31.5847 40.3017 30.9145 39.9209 30.092C39.4336 29.0106 38.87 28.6299 36.037 27.4571C33.0974 26.2538 32.412 26.1319 31.3001 26.6498C30.5081 27.0153 30.1425 27.4266 29.183 29.0259L28.3909 30.3357H25.8321H23.2733L22.5117 29.0716C21.5826 27.5332 21.1257 27.0153 20.3336 26.6498C19.4502 26.2386 18.384 26.2842 17.2112 26.8021ZM19.8767 31.4324C20.623 32.6814 20.9277 33.0621 21.4912 33.4124L22.1918 33.8389L25.7712 33.8542C30.3101 33.8542 30.4319 33.8085 31.757 31.539C32.0769 30.9907 32.4272 30.3967 32.5338 30.2139L32.7471 29.8788L34.6053 30.6404C35.641 31.0668 36.5244 31.4629 36.5853 31.5238C36.6462 31.5847 36.5396 32.2396 36.3264 32.986C35.6105 35.5905 35.8542 36.5348 37.7124 38.1341C38.3521 38.6824 39.3117 39.642 39.86 40.2817C41.4593 42.1399 42.4036 42.3836 45.0082 41.6678C45.7545 41.4545 46.4094 41.3479 46.4704 41.4088C46.5313 41.4697 46.9273 42.3532 47.3385 43.3889L48.1153 45.2471L47.7802 45.4603C47.5975 45.5669 47.0035 45.9173 46.4551 46.2371C45.2062 46.9682 44.8254 47.3033 44.4446 48.0496C44.1705 48.5979 44.14 48.9483 44.14 52.2077V55.7871L44.5817 56.4877C44.9168 57.0513 45.328 57.3863 46.4551 58.0717C47.2319 58.5591 47.9478 58.9704 48.0087 58.9856C48.0849 59.0161 47.8259 59.7929 47.4299 60.7067C47.0491 61.6358 46.6684 62.5345 46.6074 62.7173L46.4704 63.0371L45.0539 62.6716C43.4089 62.2603 42.2056 62.2146 41.5659 62.5345C40.8957 62.8848 36.4025 67.4542 36.1588 68.0329C35.8542 68.764 35.8999 69.6322 36.3264 71.2924C36.5244 72.0844 36.6462 72.7851 36.5853 72.8308C36.4025 72.9831 33.0212 74.3387 32.8384 74.3387C32.7318 74.3387 32.351 73.8056 31.9703 73.1506C31.6047 72.5109 31.0716 71.7189 30.7975 71.4143C30.0054 70.5461 29.4876 70.4395 25.6493 70.4699C21.2627 70.5004 21.217 70.5156 19.7092 73.1354C19.3284 73.8056 18.9324 74.3387 18.841 74.3387C18.7344 74.3387 17.8205 73.9883 16.8152 73.5619L14.9723 72.7851L15.3226 71.399C15.7338 69.7693 15.7795 68.566 15.4444 67.9263C15.1398 67.3323 10.6618 62.8543 10.0678 62.5497C9.42811 62.2146 8.22484 62.2603 6.59511 62.6716L5.19384 63.0371L4.43228 61.2094C4.0058 60.1889 3.65549 59.2902 3.65549 59.1836C3.65549 59.077 4.08196 58.7419 4.61505 58.4525C6.13817 57.5996 6.82357 57.0208 7.17389 56.3354C7.47851 55.7261 7.50898 55.4367 7.53944 52.4057C7.55467 50.6085 7.49375 48.8721 7.41759 48.5675C7.18912 47.6993 6.50372 46.9987 5.01106 46.1305C4.26473 45.6888 3.65549 45.2623 3.65549 45.1557C3.65549 44.9577 5.01106 41.5916 5.16337 41.4088C5.20907 41.3479 5.9097 41.4697 6.70172 41.6678C8.36192 42.0942 9.2301 42.1399 9.9612 41.8353C10.54 41.5916 15.1093 37.0984 15.4597 36.4282C15.7795 35.7885 15.7338 34.5852 15.3226 32.9403L14.957 31.5238L15.5054 31.2953C15.8252 31.1735 16.6934 30.8079 17.4397 30.4728C18.2013 30.153 18.841 29.8788 18.8867 29.8788C18.9324 29.8788 19.3741 30.5794 19.8767 31.4324Z" fill="#087CA7"/>
<path d="M24.1413 40.3889C22.1156 40.6935 19.9832 41.6226 18.3992 42.8868C16.4953 44.3794 14.9265 46.8317 14.3172 49.2687C13.906 50.9136 13.906 53.442 14.3172 55.0717C16.1907 62.4284 24.3241 66.1448 31.1477 62.7787C33.9655 61.3774 36.0521 58.9709 37.0879 55.8942C39.601 48.5071 34.2701 40.7392 26.3803 40.3127C25.6492 40.267 24.644 40.2975 24.1413 40.3889ZM27.4922 43.953C33.2191 45.1562 36.0674 51.7818 32.9297 56.6101C30.6908 60.0371 26.6545 61.4079 22.8924 60.0066C18.2926 58.2855 16.1754 52.9851 18.2926 48.5223C19.3587 46.2529 21.5825 44.5013 24.0652 43.9682C25.3598 43.6788 26.1975 43.6788 27.4922 43.953Z" fill="#087CA7"/>
</svg>
