<svg width="80" height="87" viewBox="0 0 80 87" fill="none" xmlns="http://www.w3.org/2000/svg">
<path d="M6.16399 0.108383C3.99614 0.508186 2.13926 1.81422 0.975381 3.75107C0.806574 4.02649 0.531151 4.6573 0.353459 5.15483L0.0336139 6.06106L0.00696015 37.5125C-0.010809 65.9877 -0.00192444 69.0351 0.12246 69.6659C0.717728 72.5978 3.12545 74.97 6.10179 75.5475C6.65264 75.6541 9.78002 75.6719 26.0744 75.6719H45.3895V73.8061V71.9403H26.4919C15.5817 71.9403 7.34564 71.9048 7.02579 71.8515C5.42656 71.6205 4.15607 70.43 3.81845 68.8485C3.6763 68.1733 3.6763 7.46483 3.81845 6.79848C4.06722 5.65237 4.84018 4.66618 5.91522 4.1331L6.51937 3.83991H34.0172H61.515L62.1369 4.14199C63.2209 4.67506 63.9672 5.6346 64.2159 6.79848C64.287 7.13609 64.3137 13.6663 64.3137 30.1472V53.0162L66.2061 52.9984L68.0896 52.9717V29.7829V6.59414L67.8942 5.82117C67.1834 3.03141 65.1755 0.996841 62.3591 0.188339C61.7993 0.0284195 60.8043 0.0195312 34.2837 0.00176239C11.9656 -0.00711823 6.67041 0.0106506 6.16399 0.108383Z" fill="#087CA7"/>
<path d="M16.4614 15.2044C15.9194 15.3732 15.5551 15.6842 15.2975 16.2084C14.8799 17.079 15.1553 18.0564 15.9994 18.6072L16.3725 18.856L33.8219 18.8826C45.1942 18.8915 51.3867 18.8737 51.5999 18.8115C51.7776 18.7671 52.0975 18.5805 52.2929 18.4117C53.4479 17.4255 52.9593 15.5065 51.4667 15.1689C51.2623 15.1156 43.9858 15.0889 33.9729 15.0889C20.3173 15.0889 16.7546 15.1156 16.4614 15.2044Z" fill="#087CA7"/>
<path d="M16.2036 22.8884C14.711 23.5814 14.7466 25.6782 16.2658 26.309C16.559 26.4334 18.4781 26.4512 34.0617 26.4512C51.0757 26.4512 51.5377 26.4512 51.8575 26.2824C53.2968 25.5449 53.2968 23.6259 51.8575 22.8884C51.5377 22.7196 51.0757 22.7196 34.0439 22.7196C17.2165 22.7196 16.5501 22.7285 16.2036 22.8884Z" fill="#087CA7"/>
<path d="M16.1593 30.4675C15.1464 30.9828 14.7999 32.2267 15.413 33.1684C15.7239 33.6393 16.1149 33.897 16.7101 34.0036C17.0388 34.0658 19.873 34.0924 24.8751 34.0747C33.3154 34.048 32.8623 34.0747 33.4309 33.5061C34.3727 32.5643 34.1062 30.9828 32.9067 30.4409C32.5691 30.281 32.0982 30.2721 24.5552 30.2721H16.5502L16.1593 30.4675Z" fill="#087CA7"/>
<path d="M65.4243 60.7105C65.0067 60.9415 64.6602 61.2969 64.4825 61.6789C64.3315 62.0076 64.3137 62.3541 64.3137 66.983V71.9406H59.3383C54.5851 71.9406 54.3363 71.9495 54.0165 72.1094C52.897 72.6869 52.6127 74.0463 53.4123 75.0147C53.972 75.6899 53.8032 75.6721 59.3561 75.6721H64.3048L64.3315 80.7186L64.3581 85.765L64.6069 86.1382C64.7402 86.3425 65.0156 86.618 65.2199 86.7512C65.5309 86.9645 65.6819 87 66.1795 87C66.9613 87 67.5299 86.6713 67.8587 86.0227L68.0897 85.5873L68.1163 80.6297L68.143 75.6721H73.0473C77.6406 75.6721 77.9782 75.6544 78.3158 75.5033C79.071 75.1657 79.4531 74.5083 79.3997 73.6642C79.3553 72.9712 79.0355 72.4559 78.4491 72.145L78.0582 71.9406H73.1006H68.143L68.1163 66.983L68.0897 62.0254L67.8587 61.5901C67.521 60.9326 67.0413 60.6216 66.2861 60.595C65.8596 60.5772 65.6109 60.6039 65.4243 60.7105Z" fill="#FFB300"/>
</svg>
