<svg width="90" height="77" viewBox="0 0 90 77" fill="none" xmlns="http://www.w3.org/2000/svg">
<rect x="35" y="25" width="19" height="50" fill="#FFB300"/>
<path d="M63.2197 0.31337C62.1121 0.755107 60.9693 1.88596 60.4419 3.03448L60.0376 3.93562L59.9848 38.7975L59.9497 73.6418H58.2795H56.6094V50.4417C56.6094 27.5244 56.5918 27.2417 56.2402 26.4642C55.8007 25.4924 54.8337 24.4499 53.8844 23.9375C53.1987 23.5488 53.0581 23.5488 45.0062 23.5488C36.9543 23.5488 36.8137 23.5488 36.128 23.9375C35.1787 24.4499 34.2117 25.4924 33.7722 26.4642C33.4206 27.2417 33.403 27.5244 33.403 50.4417V73.6418H31.7329H30.0803L30.0276 62.192L29.9748 50.7598L29.4826 49.7526C28.92 48.6218 28.0761 47.7913 26.9158 47.2436C26.1247 46.8902 25.861 46.8725 18.3717 46.8725H10.6362L9.70446 47.2966C9.15947 47.5439 8.47383 48.0564 8.01673 48.5688C6.62787 50.106 6.68061 49.6466 6.68061 62.3686V73.6418H4.14901C2.76015 73.6418 1.38886 73.7301 1.07241 73.8362C0.527416 74.0305 0 74.755 0 75.3204C0 75.8328 0.492255 76.5749 0.96693 76.787C1.31854 76.946 11.5856 76.999 45.0238 76.999C92.4737 76.999 89.3268 77.0697 89.8014 76.0272C90.0827 75.4264 90.0652 75.1437 89.7487 74.5429C89.3795 73.8008 88.6763 73.6418 85.8634 73.6418H83.3318L83.2966 38.6032L83.2439 3.58223L82.7165 2.64574C82.1539 1.60324 81.5562 1.03782 80.4486 0.437057C79.7454 0.0483285 79.5871 0.0483319 71.9044 0.0129929C64.5206 -0.0223461 64.0284 -0.0046812 63.2197 0.31337ZM79.4817 3.82961L79.9915 4.34202V38.9919V73.6418H71.6407H63.29V39.2569C63.29 1.85062 63.2372 4.0063 64.2217 3.52922C64.4679 3.40553 67.105 3.33485 71.7814 3.33485L78.9718 3.31718L79.4817 3.82961ZM52.812 27.277L53.2691 27.7541V50.6891V73.6418H45.0062H36.7433V50.6891V27.7541L37.2004 27.277L37.6751 26.8176H45.0062H52.3373L52.812 27.277ZM25.9665 50.6008C26.2302 50.7951 26.5115 51.1662 26.5642 51.3959C26.6345 51.6256 26.6873 56.7321 26.7049 62.722L26.7224 73.6418H18.3717H10.0209V62.5807C10.0209 51.2369 10.0385 51.0072 10.7066 50.5831C11.3219 50.1944 11.9196 50.1767 18.5826 50.1944C25.2632 50.2297 25.4742 50.2474 25.9665 50.6008Z" fill="#087CA7"/>
</svg>
