<?xml version="1.0" encoding="UTF-8"?><svg id="Layer_1" xmlns="http://www.w3.org/2000/svg" viewBox="0 0 508.68 139.58"><defs><style>.cls-1{fill:#fff;}.cls-2{fill:#fdc618;}.cls-3{fill:#16181c;}.cls-4{fill:#e0127a;}.cls-5{fill:#11adc4;}</style></defs><path class="cls-3" d="m169.34,49.16L115.77,0l13.51,47.34,40.06,1.82Z"/><path class="cls-3" d="m295.9,49.16L243.24,0l12.6,47.34,40.06,1.82Z"/><polygon class="cls-2" points="0 24.61 115.77 0 170.81 114.97 55.03 139.58 0 24.61"/><polygon class="cls-5" points="127.46 24.61 243.24 0 298.27 114.97 182.5 139.58 127.46 24.61"/><polygon class="cls-4" points="254.93 24.61 370.7 0 425.73 114.97 309.96 139.58 254.93 24.61"/><path class="cls-1" d="m79.76,72.4c-.24-.29-.41-.53-.51-.73s-.05-.46.15-.8c.97-1.65,1.8-3.45,2.48-5.39.73-1.94,1.09-3.93,1.09-5.97,0-2.72-.44-5-1.31-6.85-.87-1.89-2.06-3.42-3.57-4.59-1.51-1.21-3.25-2.09-5.24-2.62-1.94-.53-3.98-.85-6.12-.95-2.14-.1-4.3,0-6.48.29-2.19.29-4.25.7-6.19,1.24l-.07.07c.15,8.45.15,16.83,0,25.13-.15,8.25-.07,16.58.22,24.98.24.1.49.15.73.15h.87c1.75.05,3.62.15,5.61.29,2.04.15,4.05.19,6.05.15,2.04,0,4.01-.12,5.9-.36,1.89-.29,3.62-.83,5.17-1.6,1.55-.78,2.86-1.87,3.93-3.28,1.12-1.46,1.87-3.33,2.26-5.61.29-1.55.34-2.96.15-4.22-.19-1.26-.56-2.4-1.09-3.42-.49-1.07-1.09-2.06-1.82-2.99-.68-.97-1.41-1.94-2.19-2.91Zm-6.85,12.09c-.49.58-1.07,1.02-1.75,1.31-.63.24-1.34.41-2.11.51-.73.05-1.48.07-2.26.07-.73-.05-1.43-.07-2.11-.07l-.15-.07c-.39-.58-.66-1.31-.8-2.19s-.22-1.77-.22-2.69c.05-.97.15-1.92.29-2.84.15-.92.32-1.75.51-2.48.92.1,1.87.17,2.84.22.97,0,1.92.12,2.84.36.63.15,1.24.46,1.82.95.58.44,1.02.95,1.31,1.53.34.83.51,1.75.51,2.77.05,1.02-.19,1.89-.73,2.62Zm-.07-20.76c-.39.73-.92,1.29-1.6,1.68-.63.34-1.34.56-2.11.66-.78.1-1.58.12-2.4.07s-1.6-.12-2.33-.22c-.44-1.7-.58-3.35-.44-4.95.19-1.6.24-2.96.15-4.08.73-.39,1.63-.56,2.69-.51,1.12,0,2.16.1,3.13.29.78.19,1.46.51,2.04.95.63.39,1.14.97,1.53,1.75.39.78.46,1.55.22,2.33s-.53,1.46-.87,2.04Zm50.44,32.56c-.73-1.99-1.63-3.91-2.69-5.75-1.07-1.89-2.19-3.74-3.35-5.54-1.17-1.8-2.35-3.57-3.57-5.32-1.21-1.8-2.33-3.59-3.35-5.39v-.07h.36c2.33-.15,4.25-.8,5.75-1.97,1.55-1.17,2.79-2.62,3.71-4.37,1.51-2.53,2.21-5.12,2.11-7.79-.05-2.72-.7-5.2-1.97-7.43-1.26-2.23-3.03-4.1-5.32-5.61-2.28-1.51-4.86-2.33-7.72-2.48-3.54-.39-6.94-.41-10.2-.07-3.25.34-6.24.7-8.96,1.09.1.63.17,1.85.22,3.64.1,1.75.17,3.88.22,6.41.05,2.48.1,5.22.15,8.23.1,2.96.15,5.97.15,9.03.05,3.01.07,5.95.07,8.81v7.5c0,2.19-.02,3.96-.07,5.32-.05,1.31-.12,1.97-.22,1.97.24-.05.87-.05,1.89,0,1.07.05,2.26.05,3.57,0,1.31,0,2.62-.05,3.93-.15,1.36-.1,2.45-.32,3.28-.66-.05-.92-.12-2.16-.22-3.71-.1-1.55-.19-3.18-.29-4.88-.05-1.75-.07-3.42-.07-5.03s.07-3.03.22-4.15l.15.22c1.02,1.26,2.04,2.72,3.06,4.37,1.02,1.65,1.97,3.33,2.84,5.03.87,1.7,1.68,3.33,2.4,4.88.73,1.55,1.34,2.89,1.82,4.01h.07c2.19.15,4.32.17,6.41.07,2.09-.15,3.98-.22,5.68-.22h-.07Zm-24.55-40.5c1.7-.68,3.37-1.04,5.03-1.09,1.65-.1,3.01.34,4.08,1.31.68.53,1.17,1.26,1.46,2.19.29.87.39,1.77.29,2.69-.1.87-.41,1.7-.95,2.48-.49.73-1.19,1.19-2.11,1.38-1.17.19-2.4.27-3.71.22-1.31-.05-2.53-.12-3.64-.22h-.07c-.1-.53-.17-1.19-.22-1.97v-2.4c0-.83-.02-1.63-.07-2.4,0-.83-.02-1.55-.07-2.19Z"/><path class="cls-1" d="m208.46,53.39c-.58-1.7-1.58-3.18-2.99-4.44-1.41-1.07-3.01-1.87-4.81-2.4-1.75-.58-3.57-.92-5.46-1.02-1.84-.1-3.71.05-5.61.44-1.84.34-3.57.9-5.17,1.68-.63.39-1.19.83-1.68,1.31-1.51,1.7-2.53,3.67-3.06,5.9-.49,2.19-.75,4.37-.8,6.56-.24,3.84-.29,7.67-.15,11.51.19,3.79.36,7.57.51,11.36.05,1.41.17,2.82.36,4.22.24,1.36.7,2.65,1.38,3.86.44.97,1,1.77,1.68,2.4.68.58,1.43,1.07,2.26,1.46.87.39,1.77.66,2.69.8.97.19,1.97.34,2.99.44,1.41.1,2.79.1,4.15,0,1.41-.1,2.79-.34,4.15-.73,1.51-.39,2.91-.92,4.22-1.6,1.36-.73,2.45-1.68,3.28-2.84.87-1.41,1.53-2.96,1.97-4.66.44-1.75.7-3.47.8-5.17l.22-2.4c.19-2.53.27-5,.22-7.43-.05-2.43,0-4.93.15-7.5.05-1.21.05-2.4,0-3.57,0-1.21-.05-2.43-.15-3.64-.1-.78-.24-1.53-.44-2.26-.15-.78-.39-1.53-.73-2.26Zm-7.79,21.27c0,.1-.02.51-.07,1.24,0,.73-.02,1.58-.07,2.55-.1,1.02-.15,1.85-.15,2.48.05.58.05,1.09,0,1.53-.05.44-.17.85-.36,1.24-.19.34-.51.8-.95,1.38-.73.83-1.63,1.43-2.69,1.82-1.07.34-2.14.49-3.2.44-1.07-.1-2.06-.41-2.99-.95-.92-.53-1.63-1.29-2.11-2.26-.49-1.6-.78-3.28-.87-5.03-.1-1.8-.27-3.54-.51-5.24-.1-2.04-.12-4.08-.07-6.12.1-2.04.34-3.98.73-5.83.58-2.04,1.72-3.71,3.42-5.03.78-.58,1.68-1,2.69-1.24,1.02-.24,2.02-.17,2.99.22,1.12.53,1.99,1.36,2.62,2.48.68,1.12,1.07,2.35,1.17,3.71.05.83.1,1.72.15,2.69.1.92.15,1.41.15,1.46l.15,4.95v3.5Zm28.87-3.5c-.1.05-.15.07-.15.07-.05,0-.07.02-.07.07v.07c.1.87.15,1.6.15,2.19s-.02,1.17-.07,1.75v1.68c.05.58.12,1.26.22,2.04.24.1.58.17,1.02.22h1.53c.58-.05,1.12-.07,1.6-.07.53-.05.95-.05,1.24,0,.15.05.22.27.22.66.05.39.05.83,0,1.31,0,.49-.05.97-.15,1.46-.05.44-.1.75-.15.95-.19.68-.49,1.24-.87,1.68-.39.39-.85.7-1.38.95-.68.24-1.43.44-2.26.58-.78.15-1.53.17-2.26.07-.68-.15-1.24-.36-1.68-.66-.92-.73-1.53-1.72-1.82-2.99-.29-1.26-.49-2.43-.58-3.5-.15-1.8-.24-3.69-.29-5.68-.05-1.99-.02-3.91.07-5.75.1-1.89.24-3.67.44-5.32.24-1.65.53-3.06.87-4.22.1-.39.22-.78.36-1.17.19-.44.34-.7.44-.8.58-.58,1.26-.87,2.04-.87s1.58.02,2.4.07c.73,0,1.36.24,1.89.73.53.44,1,.97,1.38,1.6.44.58.78,1.24,1.02,1.97.29.68.51,1.26.66,1.75.73.1,1.36.17,1.89.22s1.04.07,1.53.07h1.53c.53-.05,1.17-.07,1.89-.07.78-.05,1.33-.07,1.68-.07s.56-.07.66-.22l.07-.44c.34-2.96.07-5.51-.8-7.65-.87-2.19-2.19-3.93-3.93-5.24-1.75-1.31-3.84-2.21-6.26-2.69-2.43-.53-4.98-.63-7.65-.29-1.31.19-2.57.49-3.79.87-1.21.39-2.31,1-3.28,1.82-1.41.97-2.43,2.21-3.06,3.71-.58,1.51-1,3.06-1.24,4.66-.24,1.55-.41,3.16-.51,4.81-.1,1.6-.17,3.18-.22,4.73-.05,1.8-.07,3.4-.07,4.81.05,1.36.1,2.67.15,3.93.1,1.21.19,2.45.29,3.71.1,1.26.22,2.67.36,4.22.1.97.22,1.94.36,2.91.19.92.36,1.65.51,2.19.58,2.09,1.38,3.84,2.4,5.24,1.02,1.41,2.5,2.53,4.44,3.35,1.17.49,2.38.8,3.64.95,1.31.15,2.65.15,4.01,0,1.36-.1,2.69-.29,4.01-.58,1.31-.24,2.57-.53,3.79-.87,1.84-.68,3.4-1.68,4.66-2.99,1.26-1.31,2.02-3.2,2.26-5.68.49-2.62.68-5.37.58-8.23-.1-2.91-.29-5.66-.58-8.23l-.07-.07h-.15c-.49,0-1.43-.05-2.84-.15-1.36-.15-2.84-.24-4.44-.29-1.6-.05-3.13-.02-4.59.07-1.41.05-2.43.27-3.06.66Z"/><path class="cls-1" d="m332.72,71.16c-.1.05-.15.07-.15.07-.05,0-.07.02-.07.07v.07c.1.87.15,1.6.15,2.19s-.02,1.17-.07,1.75v1.68c.05.58.12,1.26.22,2.04.24.1.58.17,1.02.22h1.53c.58-.05,1.12-.07,1.6-.07.53-.05.95-.05,1.24,0,.15.05.22.27.22.66.05.39.05.83,0,1.31,0,.49-.05.97-.15,1.46-.05.44-.1.75-.15.95-.19.68-.49,1.24-.87,1.68-.39.39-.85.7-1.38.95-.68.24-1.43.44-2.26.58-.78.15-1.53.17-2.26.07-.68-.15-1.24-.36-1.68-.66-.92-.73-1.53-1.72-1.82-2.99-.29-1.26-.49-2.43-.58-3.5-.15-1.8-.24-3.69-.29-5.68-.05-1.99-.02-3.91.07-5.75.1-1.89.24-3.67.44-5.32.24-1.65.53-3.06.87-4.22.1-.39.22-.78.36-1.17.19-.44.34-.7.44-.8.58-.58,1.26-.87,2.04-.87s1.58.02,2.4.07c.73,0,1.36.24,1.89.73.53.44,1,.97,1.38,1.6.44.58.78,1.24,1.02,1.97.29.68.51,1.26.66,1.75.73.1,1.36.17,1.89.22s1.04.07,1.53.07h1.53c.53-.05,1.17-.07,1.89-.07.78-.05,1.33-.07,1.68-.07s.56-.07.66-.22l.07-.44c.34-2.96.07-5.51-.8-7.65-.87-2.19-2.19-3.93-3.93-5.24-1.75-1.31-3.84-2.21-6.26-2.69-2.43-.53-4.98-.63-7.65-.29-1.31.19-2.57.49-3.79.87-1.21.39-2.31,1-3.28,1.82-1.41.97-2.43,2.21-3.06,3.71-.58,1.51-1,3.06-1.24,4.66-.24,1.55-.41,3.16-.51,4.81-.1,1.6-.17,3.18-.22,4.73-.05,1.8-.07,3.4-.07,4.81.05,1.36.1,2.67.15,3.93.1,1.21.19,2.45.29,3.71.1,1.26.22,2.67.36,4.22.1.97.22,1.94.36,2.91.19.92.36,1.65.51,2.19.58,2.09,1.38,3.84,2.4,5.24,1.02,1.41,2.5,2.53,4.44,3.35,1.17.49,2.38.8,3.64.95,1.31.15,2.65.15,4.01,0,1.36-.1,2.69-.29,4.01-.58,1.31-.24,2.57-.53,3.79-.87,1.84-.68,3.4-1.68,4.66-2.99,1.26-1.31,2.02-3.2,2.26-5.68.49-2.62.68-5.37.58-8.23-.1-2.91-.29-5.66-.58-8.23l-.07-.07h-.15c-.49,0-1.43-.05-2.84-.15-1.36-.15-2.84-.24-4.44-.29s-3.13-.02-4.59.07c-1.41.05-2.43.27-3.06.66Zm31.79-25.86c-2.19.05-3.86.05-5.03,0-1.12-.1-2.11-.17-2.99-.22-.34,0-.87-.02-1.6-.07-.68-.1-1.14-.12-1.38-.07v.15c-.44,4.08-.66,8.25-.66,12.53.05,4.22.12,8.52.22,12.89.15,4.32.24,8.69.29,13.11.05,4.42-.1,8.81-.44,13.18.48-.15,1.38-.19,2.69-.15,1.31.1,2.67.17,4.08.22,1.46.05,2.79.02,4.01-.07,1.26-.05,2.09-.27,2.48-.66-.24-4.13-.39-8.3-.44-12.53-.05-4.22-.05-8.45,0-12.67.1-4.27.19-8.52.29-12.75.15-4.22.22-8.42.22-12.6v-.29h-1.75Z"/><g><polygon points="426.34 53.85 482.15 41.99 508.68 97.41 452.87 109.28 426.34 53.85"/><path class="cls-1" d="m442.46,91.81v-27.79l.71-3.89h6.11v31.68h-6.83Zm-6.42-20.82v-6.61c.8.06,1.62-.12,2.45-.54.86-.42,1.69-.98,2.5-1.67.83-.72,1.56-1.43,2.18-2.13l4.55,4.48c-1.1,1.27-2.28,2.43-3.52,3.48-1.25,1.03-2.54,1.83-3.88,2.4-1.34.54-2.77.74-4.28.59Z"/><path class="cls-1" d="m461.45,91.81v-27.79l.71-3.89h6.11v31.68h-6.83Zm-6.42-20.82v-6.61c.8.06,1.62-.12,2.45-.54.86-.42,1.69-.98,2.5-1.67.83-.72,1.56-1.43,2.18-2.13l4.55,4.48c-1.1,1.27-2.28,2.43-3.52,3.48-1.25,1.03-2.54,1.83-3.88,2.4-1.34.54-2.77.74-4.28.59Z"/><path class="cls-1" d="m481.34,90.91l-7-4.34c0-.81.3-1.75.89-2.81.6-1.09,1.41-2.19,2.45-3.3,1.07-1.12,2.28-2.14,3.61-3.08l3.93-2.72c.59-.39,1.19-.84,1.78-1.36.59-.54,1.09-1.12,1.47-1.72.39-.63.58-1.27.58-1.9s-.16-1.25-.49-1.76c-.3-.54-.76-.95-1.38-1.22-.59-.3-1.38-.45-2.36-.45-.74,0-1.41.17-2.01.5-.57.3-1.04.72-1.43,1.27-.36.51-.62,1.09-.8,1.72l-7.41-1.27c.3-1.57.94-3.03,1.92-4.39,1.01-1.36,2.33-2.44,3.97-3.26,1.66-.84,3.57-1.27,5.71-1.27,2.44,0,4.52.44,6.24,1.31,1.73.84,3.05,2.02,3.97,3.53.95,1.51,1.43,3.26,1.43,5.25,0,2.11-.58,3.94-1.74,5.48-1.13,1.54-2.63,2.96-4.5,4.25l-3.44,2.4c-.83.57-1.68,1.27-2.54,2.08-.83.81-1.52,1.8-2.05,2.94-.54,1.15-.8,2.52-.8,4.12Zm-7,.91v-5.25l5.31-1.13h17.13v6.38h-22.44Z"/></g></svg>