<?xml version="1.0" encoding="UTF-8"?>
<svg shape-rendering="geometricPrecision" text-rendering="geometricPrecision" viewBox="0 0 500 406" xmlns="http://www.w3.org/2000/svg">
<g transform="translate(-8.44-53)" fill="#fdc500">
<path d="m308.44 120.93v-62.54c0-2.9768-2.437-5.39-5.4432-5.39h-289.11c-1.4436 0-2.8281 0.56787-3.8489 1.5787s-1.5943 2.3818-1.5943 3.8113v88.24c0.011126 2.969 2.4449 5.37 5.4432 5.37h136.33q3.3628 0 6.7156 0c50.38-0.66526 100.31-9.4468 147.84-26 2.1834-0.75008 3.6522-2.7815 3.6658-5.07z"/>
<path d="m508.44 85.91c-6.4e-4 -1.8583-0.96618-3.5858-2.5561-4.573s-3.5807-1.0957-5.2703-0.28697c-12.317 5.8816-24.136 12.734-35.345 20.49l-62.066 42.92c-61.965 42.85-133.73 66-207.53 66.94h-5.4128-176.38c-3.0062 0-5.4431 2.4132-5.4431 5.39v88.24c0 2.9768 2.437 5.39 5.4431 5.39h176.35q3.3628 0 6.7155 0c93.917-1.2 185.02-30.52 263.48-84.77l45.686-31.59c1.457-1.0136 2.3237-2.6668 2.3227-4.43z"/>
<rect transform="translate(8.44 359.98)" width="500" height="99" rx="5.39" ry="5.39"/>
</g>
</svg>
